<svg id="Layer_1" data-name="Layer 1" xmlns="http://www.w3.org/2000/svg" viewBox="0 0 334.71 295.45"><defs><style>.cls-1{fill:#707070;}</style></defs><title>arrow</title><path class="cls-1" d="M674.5,303.55a4.89,4.89,0,0,1,4.37,2.52L825.15,559.42a5.06,5.06,0,0,1-4.38,7.58H528.23a5.06,5.06,0,0,1-4.38-7.58L670.13,306.07a4.89,4.89,0,0,1,4.37-2.52m0-16a20.86,20.86,0,0,0-18.23,10.52L510,551.42A21.05,21.05,0,0,0,528.23,583H820.77A21.05,21.05,0,0,0,839,551.42L692.73,298.07a20.86,20.86,0,0,0-18.23-10.52Z" transform="translate(-507.15 -287.55)"/></svg>