<?xml version="1.0" encoding="utf-8"?>
<!-- Generator: Adobe Illustrator 23.0.5, SVG Export Plug-In . SVG Version: 6.00 Build 0)  -->
<svg version="1.1" id="Layer_1" xmlns="http://www.w3.org/2000/svg" xmlns:xlink="http://www.w3.org/1999/xlink" x="0px" y="0px"
	 viewBox="0 0 1920 620" style="enable-background:new 0 0 1920 620;" xml:space="preserve">
<style type="text/css">
	.st0{fill:#FFFFFF;stroke:#000000;stroke-miterlimit:10;}
	.st1{fill:#2000FF;}
	.st2{fill:#FFC4F9;}
	.st3{fill:#E1F5FF;}
</style>
<line class="st0" x1="0.5" y1="297.5" x2="0.5" y2="220.5"/>
<path class="st1" d="M1408.24,57.2c-7.59-4.9-11.89-7.92-12.29-8.2C1400.16,51.56,1404.26,54.3,1408.24,57.2z"/>
<path class="st2" d="M1920,94v117c0,0-97-1-150,103s-132,35-188-43c-55.99-77.98-94.61,54.36-208.74,95.68
	c-0.03,0.01-0.05,0.02-0.08,0.03c-21.55,9.2-45.27,14.29-70.18,14.29c-98.86,0-179-80.14-179-179s80.14-179,179-179
	c34.03,0,65.83,9.5,92.92,25.98c0,0,0.01,0.01,0.03,0.02c0.4,0.28,4.7,3.3,12.29,8.2C1469.94,97.03,1749.1,261.36,1920,94z"/>
<path class="st3" d="M0,306c0,0,75,70,148,16s176-95,304,26s254.93,54.73,311,4c84-76,184-255,296-173c0,0-21,198,132,235
	c0,0-285-6-454,93c-148.88,87.21-319,117-425,11C210.2,416.2,1,527,1,527L0,306z"/>
</svg>
